<svg width="62" height="51" viewBox="0 0 62 51" fill="none" xmlns="http://www.w3.org/2000/svg">
<path id="Vector" d="M60.1893 13.0744V9.78082C60.1893 6.38747 57.4669 3.69276 54.0388 3.69276H31.6554L31.3529 2.89432C30.6471 1.09785 28.9331 0 27.0174 0H6.65041C3.22231 0 0.5 2.69472 0.5 6.08806V44.9119C0.5 48.3053 3.22231 51 6.65041 51H55.3496C58.7777 51 61.5 48.3053 61.5 44.9119V16.1683C61.5 14.9706 60.9959 13.8728 60.1893 13.0744ZM54.0388 8.08415C54.9463 8.08415 55.6521 8.78278 55.6521 9.68102V11.5773H34.8818L33.4702 8.08415H54.0388ZM56.9628 44.9119C56.9628 45.8102 56.257 46.5088 55.3496 46.5088H6.65041C5.74298 46.5088 5.03719 45.8102 5.03719 44.9119V5.98826C5.03719 5.09002 5.74298 4.39139 6.65041 4.39139L27.1182 4.49119L31.2521 14.6712C31.5545 15.5695 32.462 16.0685 33.3694 16.0685H56.862C56.862 16.0685 56.9628 16.0685 56.9628 16.1683V44.9119Z" fill="#FFBA08"/>
</svg>
