<svg width="35" height="50" viewBox="0 0 35 50" fill="none" xmlns="http://www.w3.org/2000/svg">
<path id="&#226;&#130;&#180;" d="M17.643 5.22814C14.7343 5.22814 12.6203 5.88561 11.3011 7.20057C10.6612 7.83842 10.1783 8.57748 9.85259 9.41774C9.25372 10.9626 8.0029 12.3574 6.34605 12.3574H5.9564C4.29955 12.3574 2.91672 10.9976 3.27974 9.38101C3.51759 8.32187 3.88665 7.30196 4.38692 6.32129C5.3406 4.43599 6.89033 2.91508 9.0361 1.75856C11.1819 0.586186 14.0509 0 17.643 0C20.5995 0 23.1108 0.427756 25.1771 1.28327C27.2593 2.13878 28.8408 3.40621 29.9217 5.08555C31.0184 6.76489 31.5668 8.84031 31.5668 11.3118C31.5668 12.2307 31.4475 13.1496 31.2091 14.0684C30.9707 14.9873 30.5972 15.8666 30.0886 16.7063C29.7663 17.2382 28.2257 18.8606 27.1397 19.9783C26.4628 20.675 25.455 20.9301 24.5238 20.6533C22.684 20.1064 22.0237 17.8421 23.2383 16.356C23.9222 15.5193 24.5287 14.7454 24.748 14.3774C25.3519 13.3634 25.6539 12.3099 25.6539 11.2167C25.6539 9.41065 24.9864 7.96103 23.6512 6.86787C22.3161 5.77472 20.3133 5.22814 17.643 5.22814ZM35 19.7243C35 21.168 33.8296 22.3384 32.3859 22.3384H2.61407C1.17036 22.3384 0 21.168 0 19.7243C0 18.2806 1.17036 17.1103 2.61407 17.1103H32.3859C33.8296 17.1103 35 18.2806 35 19.7243ZM35 29.6103C35 31.054 33.8296 32.2243 32.3859 32.2243H2.61407C1.17036 32.2243 0 31.054 0 29.6103C0 28.1666 1.17036 26.9962 2.61407 26.9962H32.3859C33.8296 26.9962 35 28.1666 35 29.6103ZM17.4523 50C12.8747 50 9.25068 49.0257 6.58038 47.077C3.91008 45.1283 2.57493 42.3004 2.57493 38.5932C2.57493 37.6743 2.71004 36.7475 2.98024 35.8127C3.26635 34.8622 3.67961 33.975 4.22003 33.1511C4.6355 32.524 5.73774 30.8232 6.6135 29.7514C7.07023 29.1925 7.78867 28.9916 8.50555 29.076C10.6993 29.3343 11.7812 31.8694 10.5331 33.6919C10.126 34.2863 9.79775 34.7935 9.65599 35.076C9.13147 36.1375 8.86921 37.3099 8.86921 38.5932C8.86921 40.4468 9.60831 41.9122 11.0865 42.9895C12.5647 44.051 14.6866 44.5817 17.4523 44.5817C20.0272 44.5817 22.1492 44.051 23.8181 42.9895C24.7151 42.4105 25.3711 41.637 25.786 40.6689C26.4387 39.146 27.6647 37.7376 29.3215 37.7376H29.7112C31.368 37.7376 32.7596 39.0959 32.4298 40.7196C32.1259 42.2155 31.576 43.5266 30.78 44.653C29.4925 46.4591 27.7044 47.8058 25.4155 48.693C23.1267 49.5643 20.4723 50 17.4523 50Z" fill="#FFBA08"/>
</svg>
