<svg width="73" height="52" viewBox="0 0 73 52" fill="none" xmlns="http://www.w3.org/2000/svg">
<path id="Vector" d="M70.6452 30.1327H67.89C66.9598 30.1327 66.171 29.0487 66.171 27.7763V9.96195C66.171 8.65415 67.0187 7.5113 67.9842 7.5113H70.6452C71.2697 7.5113 71.8687 7.26304 72.3103 6.82113C72.7519 6.37922 73 5.77986 73 5.15491C73 4.52996 72.7519 3.9306 72.3103 3.48869C71.8687 3.04678 71.2697 2.79852 70.6452 2.79852H67.9842C66.8329 2.81352 65.707 3.13878 64.7249 3.74006C63.7427 4.34134 62.9407 5.19641 62.4032 6.21529H46.9908L44.7419 4.2477C42.7413 2.45338 40.3359 1.17096 37.7317 0.510248C35.1275 -0.150469 32.402 -0.169801 29.7887 0.453907C23.1952 2.12695 18.8387 7.44061 17.3198 9.63206H14.965C14.9914 7.88224 14.3365 6.19075 13.139 4.91542C11.9414 3.64009 10.295 2.88092 8.54806 2.79852H2.35484C1.7303 2.79852 1.13133 3.04678 0.689716 3.48869C0.248098 3.9306 0 4.52996 0 5.15491C0 5.77986 0.248098 6.37922 0.689716 6.82113C1.13133 7.26304 1.7303 7.5113 2.35484 7.5113H8.52452C9.45468 7.5113 10.2435 8.58346 10.2435 9.86769V27.6702C10.2435 28.978 9.39581 30.1327 8.43032 30.1327H2.35484C1.7303 30.1327 1.13133 30.3809 0.689716 30.8228C0.248098 31.2648 0 31.8641 0 32.4891C0 33.114 0.248098 33.7134 0.689716 34.1553C1.13133 34.5972 1.7303 34.8455 2.35484 34.8455H8.43032C9.575 34.8217 10.6926 34.4925 11.6675 33.8918C12.6425 33.2911 13.4394 32.4408 13.976 31.4287H14.8002C15.6952 31.4305 16.5748 31.6617 17.3552 32.1003C17.2955 32.4193 17.3023 32.7473 17.3753 33.0635C17.4482 33.3798 17.5857 33.6776 17.779 33.9382L20.4989 37.5789C20.8191 37.9951 21.2651 38.2968 21.7705 38.439L25.3734 39.4051L26.9865 42.8454C27.1308 43.1539 27.3403 43.4274 27.6005 43.6471C27.8607 43.8668 28.1654 44.0274 28.4935 44.1179L32.2848 45.1547L34.7456 49.0663C35.0561 49.5601 35.5385 49.9212 36.0997 50.0795L42.6579 51.9057C42.8645 51.9661 43.0785 51.9978 43.2937 52C43.6794 52.0006 44.0594 51.9063 44.4002 51.7255C44.741 51.5448 45.0322 51.283 45.2482 50.9632L57.5523 32.6776C57.6603 32.5177 57.8059 32.3868 57.9763 32.2964C58.1467 32.206 58.3366 32.1589 58.5295 32.1592H62.8506C63.4171 32.9752 64.1696 33.6445 65.046 34.1116C65.9223 34.5787 66.8972 34.8303 67.89 34.8455H70.6452C71.2697 34.8455 71.8687 34.5972 72.3103 34.1553C72.7519 33.7134 73 33.114 73 32.4891C73 31.8641 72.7519 31.2648 72.3103 30.8228C71.8687 30.3809 71.2697 30.1327 70.6452 30.1327ZM21.1229 12.3655C22.3827 10.5864 25.8326 6.30954 30.9426 5.01353C32.8184 4.58007 34.7712 4.60653 36.6347 5.09065C38.4981 5.57477 40.2171 6.50222 41.6453 7.79407L46.461 11.9885C47.0471 12.4369 47.4356 13.0961 47.5442 13.8264C47.5533 14.0103 47.5246 14.1941 47.4598 14.3663C47.395 14.5386 47.2955 14.6957 47.1674 14.8279L45.1658 16.9722C44.6571 17.5231 43.9615 17.8645 43.2148 17.9298C42.4681 17.9952 41.7238 17.7798 41.1273 17.3257L40.6563 16.9722C39.1989 15.8696 37.3917 15.3325 35.5691 15.4603C33.7466 15.5881 32.0319 16.3721 30.7424 17.6674L20.3458 28.4243C18.7531 27.341 16.8787 26.7472 14.9532 26.7159V14.3448H17.3081C18.0553 14.3414 18.7909 14.1601 19.4542 13.8159C20.1176 13.4717 20.6895 12.9746 21.1229 12.3655ZM53.655 30.0384L42.2929 46.9102L38.2426 45.732L35.7818 41.8204C35.4685 41.3242 34.9814 40.9629 34.416 40.8071L30.7895 39.8174L29.1647 36.3653C29.0203 36.0568 28.8108 35.7833 28.5506 35.5637C28.2905 35.344 27.9858 35.1834 27.6576 35.0929L23.7839 34.0561L22.7477 32.6776L34.0745 20.8956C34.5653 20.4121 35.2134 20.1211 35.9007 20.0757C36.5879 20.0303 37.2686 20.2335 37.8187 20.6482L38.2897 21.0017C39.8179 22.156 41.7196 22.7023 43.627 22.5347C45.5344 22.3671 47.3119 21.4976 48.6156 20.0944L50.629 18.0444C51.1889 17.4491 51.6225 16.7466 51.9038 15.9792C52.185 15.2118 52.3081 14.3953 52.2656 13.579C52.2165 12.653 51.9674 11.7486 51.5356 10.9281H61.4613V27.4228H58.5295C57.5651 27.4259 56.6161 27.666 55.7662 28.1221C54.9162 28.5782 54.1912 29.2362 53.655 30.0384Z" fill="#FFBA08"/>
</svg>
