<svg width="30" height="30" viewBox="0 0 30 30" fill="none" xmlns="http://www.w3.org/2000/svg">
<g id="Call">
<path id="Call_2" fill-rule="evenodd" clip-rule="evenodd" d="M2.67669 4.90272C3.12481 4.16074 5.59385 1.46196 7.35578 1.54343C7.88247 1.58708 8.34805 1.90569 8.72633 2.27523C9.59493 3.12342 12.0814 6.3314 12.2226 7.00645C12.5659 8.66209 10.593 9.61648 11.1968 11.2852C12.7361 15.0519 15.3885 17.7041 19.1568 19.2419C20.8242 19.8456 21.7786 17.8728 23.4343 18.2177C24.108 18.3588 27.3176 20.8451 28.1658 21.7137C28.5339 22.0905 28.854 22.5575 28.8976 23.0842C28.9631 24.9391 26.0969 27.443 25.5382 27.763C24.22 28.7058 22.5002 28.6898 20.4037 27.715C14.5534 25.281 5.20392 16.1081 2.72471 10.0369C1.77608 7.95212 1.71061 6.22083 2.67669 4.90272Z" stroke="white" stroke-width="2" stroke-linecap="round" stroke-linejoin="round"/>
</g>
</svg>
