<svg width="27" height="27" viewBox="0 0 27 27" fill="none" xmlns="http://www.w3.org/2000/svg">
<g id="Group 3">
<path id="Vector" d="M13.228 2.94561C16.7603 2.94561 17.1786 2.9611 18.5677 3.02307C19.8587 3.07987 20.5559 3.29677 21.0207 3.47751C21.6352 3.71506 22.0793 4.00425 22.5389 4.46386C23.0037 4.92863 23.2877 5.36758 23.5253 5.98212C23.706 6.44689 23.9229 7.14921 23.9797 8.43508C24.0417 9.82939 24.0572 10.2477 24.0572 13.7748C24.0572 17.3071 24.0417 17.7254 23.9797 19.1145C23.9229 20.4055 23.706 21.1027 23.5253 21.5675C23.2877 22.182 22.9985 22.6261 22.5389 23.0857C22.0741 23.5505 21.6352 23.8345 21.0207 24.0721C20.5559 24.2528 19.8536 24.4697 18.5677 24.5265C17.1734 24.5885 16.7551 24.604 13.228 24.604C9.69572 24.604 9.27743 24.5885 7.88828 24.5265C6.59724 24.4697 5.90009 24.2528 5.43531 24.0721C4.82078 23.8345 4.37667 23.5453 3.91706 23.0857C3.45229 22.6209 3.16826 22.182 2.93071 21.5675C2.74997 21.1027 2.53307 20.4004 2.47627 19.1145C2.4143 17.7202 2.39881 17.3019 2.39881 13.7748C2.39881 10.2425 2.4143 9.82423 2.47627 8.43508C2.53307 7.14404 2.74997 6.44689 2.93071 5.98212C3.16826 5.36758 3.45745 4.92347 3.91706 4.46386C4.38183 3.99909 4.82078 3.71506 5.43531 3.47751C5.90009 3.29677 6.60241 3.07987 7.88828 3.02307C9.27743 2.9611 9.69572 2.94561 13.228 2.94561ZM13.228 0.564941C9.63892 0.564941 9.18964 0.580434 7.77983 0.642403C6.37519 0.704373 5.40949 0.931595 4.5729 1.25693C3.70017 1.59777 2.9617 2.04705 2.22839 2.78552C1.48992 3.51882 1.04064 4.2573 0.699806 5.12487C0.374466 5.96662 0.147244 6.92715 0.0852745 8.33179C0.0233049 9.74677 0.0078125 10.196 0.0078125 13.7851C0.0078125 17.3742 0.0233049 17.8235 0.0852745 19.2333C0.147244 20.6379 0.374466 21.6036 0.699806 22.4402C1.04064 23.3129 1.48992 24.0514 2.22839 24.7847C2.9617 25.518 3.70017 25.9725 4.56774 26.3081C5.40949 26.6335 6.37002 26.8607 7.77467 26.9227C9.18447 26.9846 9.63375 27.0001 13.2228 27.0001C16.8119 27.0001 17.2612 26.9846 18.671 26.9227C20.0756 26.8607 21.0413 26.6335 21.8779 26.3081C22.7455 25.9725 23.484 25.518 24.2173 24.7847C24.9506 24.0514 25.405 23.3129 25.7407 22.4454C26.066 21.6036 26.2932 20.6431 26.3552 19.2384C26.4172 17.8286 26.4327 17.3794 26.4327 13.7903C26.4327 10.2012 26.4172 9.75193 26.3552 8.34212C26.2932 6.93748 26.066 5.97179 25.7407 5.1352C25.4153 4.2573 24.9661 3.51882 24.2276 2.78552C23.4943 2.05221 22.7558 1.59777 21.8882 1.2621C21.0465 0.936759 20.086 0.709537 18.6813 0.647568C17.2663 0.580434 16.8171 0.564941 13.228 0.564941Z" fill="white"/>
<path id="Vector_2" d="M13.2283 6.9939C9.47917 6.9939 6.4375 10.0356 6.4375 13.7847C6.4375 17.5339 9.47917 20.5756 13.2283 20.5756C16.9775 20.5756 20.0192 17.5339 20.0192 13.7847C20.0192 10.0356 16.9775 6.9939 13.2283 6.9939ZM13.2283 18.1897C10.796 18.1897 8.82333 16.217 8.82333 13.7847C8.82333 11.3524 10.796 9.37972 13.2283 9.37972C15.6606 9.37972 17.6333 11.3524 17.6333 13.7847C17.6333 16.217 15.6606 18.1897 13.2283 18.1897Z" fill="white"/>
<path id="Vector_3" d="M21.8729 6.72553C21.8729 7.60343 21.1603 8.31092 20.2875 8.31092C19.4096 8.31092 18.7021 7.59827 18.7021 6.72553C18.7021 5.84762 19.4148 5.14014 20.2875 5.14014C21.1603 5.14014 21.8729 5.85279 21.8729 6.72553Z" fill="white"/>
</g>
</svg>
