<svg width="27" height="27" viewBox="0 0 27 27" fill="none" xmlns="http://www.w3.org/2000/svg">
<path id="Subtract" fill-rule="evenodd" clip-rule="evenodd" d="M26.4403 13.6809C26.4403 20.9822 20.5215 26.901 13.2202 26.901C5.91887 26.901 0 20.9822 0 13.6809C0 6.37957 5.91887 0.460693 13.2202 0.460693C20.5215 0.460693 26.4403 6.37957 26.4403 13.6809ZM13.6932 10.2208C12.4074 10.7556 9.83745 11.8626 5.9835 13.5417C5.35768 13.7906 5.02984 14.034 5 14.2721C4.94956 14.6744 5.45339 14.8328 6.13947 15.0486C6.2328 15.0779 6.32949 15.1083 6.42863 15.1405C7.10363 15.36 8.01162 15.6166 8.48365 15.6268C8.91182 15.6361 9.38972 15.4596 9.91732 15.0973C13.5182 12.6666 15.377 11.438 15.4937 11.4115C15.576 11.3928 15.6901 11.3693 15.7674 11.438C15.8447 11.5068 15.8371 11.6369 15.8289 11.6718C15.779 11.8846 13.8013 13.7232 12.7778 14.6747C12.4588 14.9713 12.2324 15.1818 12.1862 15.2298C12.0825 15.3375 11.9769 15.4393 11.8754 15.5371C11.2483 16.1417 10.778 16.595 11.9014 17.3353C12.4413 17.691 12.8733 17.9852 13.3042 18.2787C13.7749 18.5992 14.2443 18.9189 14.8517 19.3171C15.0065 19.4185 15.1543 19.5239 15.2982 19.6265C15.8459 20.017 16.338 20.3678 16.946 20.3119C17.2993 20.2793 17.6642 19.9472 17.8495 18.9565C18.2874 16.6152 19.1483 11.5423 19.3473 9.45186C19.3647 9.26871 19.3428 9.03432 19.3251 8.93143C19.3075 8.82853 19.2707 8.68193 19.137 8.57341C18.9786 8.44488 18.7341 8.41778 18.6247 8.41971C18.1275 8.42846 17.3646 8.69373 13.6932 10.2208Z" fill="white"/>
</svg>
